<?xml version="1.0" encoding="utf-8"?>
<!-- Generator: Adobe Illustrator 19.2.1, SVG Export Plug-In . SVG Version: 6.00 Build 0)  -->
<svg version="1.1" id="Layer_1" xmlns="http://www.w3.org/2000/svg" xmlns:xlink="http://www.w3.org/1999/xlink" x="0px" y="0px"
	 viewBox="0 0 104 100.5" style="enable-background:new 0 0 104 100.5;" xml:space="preserve">
<style type="text/css">
	.st0{enable-background:new    ;}
	.st1{fill:#FF3D7F;}
</style>
<g class="st0">
	<path class="st1" d="M53.1,36.6c7.2-6.4,13.1-11.4,17.5-15.2c4.4-3.7,8.6-7.1,12.6-10c3.9-2.9,7.5-5.2,10.5-6.8s6-2.7,8.9-3.4
		l0.5,0.4l-1.6,1.5c-4.8,4.5-9,8.6-12.7,12.5c-3.7,3.9-7.7,8.2-11.9,12.9c-4.2,4.8-8.2,9.4-11.8,14c-3.7,4.5-7.5,9.5-11.5,14.9
		c1.7,0,3.7-0.5,5.9-1.6c2.3-1.1,4.6-2.5,6.9-4.2c2.3-1.7,4.4-3.6,6.4-5.5v0.9c-2.2,2.3-5.1,4.7-8.9,7.3s-7.4,3.9-10.7,3.9l-2.2,3.2
		h-5l2.9-3.8c-2.6-0.5-4.8-1.2-6.6-2.1c-1.7-0.9-3.7-2.2-5.8-3.9c-3.1,2-6,3.8-8.7,5.3c-2.7,1.5-5.5,2.8-8.5,3.8
		c-3,1.1-6,1.6-8.9,1.6c-3,0-5.3-0.6-7-1.7c-1.7-1.1-2.5-2.6-2.5-4.6c0-1.3,0.4-2.5,1.2-3.5c0.8-1,1.8-1.5,3-1.5
		c0.8,0,1.3,0.2,1.7,0.6c0.4,0.4,0.6,0.8,0.6,1.2c0,1.1-0.7,1.7-2.1,1.7c-1.1,0-1.8-0.6-2-1.8c-1.1,0.9-1.7,2.1-1.7,3.6
		c0,1.7,0.7,3,2.2,3.9c1.5,0.9,3.6,1.4,6.3,1.4c2.8,0,5.7-0.5,8.7-1.6c3-1,5.8-2.3,8.5-3.8c2.7-1.5,5.4-3.2,8.3-5.1
		c-2.8-3.1-4.8-5.9-6.1-8.4c-1.2-2.5-1.8-5.4-1.8-8.5c0-3.3,0.9-6.2,2.6-8.7c1.7-2.5,4.3-3.8,7.7-3.8c3.8,0,7,1.4,9.5,4.1
		S52,32.2,53.1,36.6z M52.3,37.3c-0.7-3.7-2.3-7.2-4.8-10.2c-2.5-3.1-5.6-4.6-9.4-4.6c-2.7,0-4.7,0.7-6.1,2.2
		c-1.4,1.5-2.4,3.1-2.8,4.7c-0.5,1.7-0.7,3-0.7,3.9c0,3.4,0.6,6.4,1.8,9s3.2,5.3,6.1,8.3C40.2,47.6,45.5,43.2,52.3,37.3z M52.5,38.1
		c-1.5,1.4-3.8,3.4-7,6.1c-3.2,2.7-6,5-8.5,7c2.2,1.8,4.2,3.1,6,4c1.8,0.9,3.9,1.6,6.3,2c1.6-3.4,2.6-6.6,3.1-9.6
		C52.9,44.5,52.9,41.4,52.5,38.1z M81.7,21.4l1.4-1.6c1.5-1.6,4.5-4.5,8.8-8.7c4.4-4.2,7.3-7,8.8-8.3C97.9,3.3,94.3,5,89.8,7.9
		c-4.5,2.9-9,6.2-13.5,9.8c-4.5,3.7-8.8,7.2-12.7,10.7c-3.9,3.5-7.3,6.5-10.2,9c0.4,3.3,0.5,6.2,0.1,8.8c-0.3,2.6-1.1,5.4-2.4,8.4
		c1.4-1.8,3.2-3.8,5.2-6.1c2.1-2.3,3.8-4.2,5.2-5.6c1.4-1.5,3.6-3.8,6.6-7.1C71.3,32.6,75.8,27.7,81.7,21.4z"/>
</g>
<g class="st0">
	<path class="st1" d="M72.4,46.8L73,47c-1.4,5.4-3.7,10.2-6.9,14.4c-3.2,4.2-6.8,7.5-10.8,9.8c-4,2.3-7.8,3.5-11.4,3.5
		c-2.1,0-3.8-0.6-5-1.8c-1.2-1.2-1.9-2.7-1.9-4.7c0-3.1,1.1-6.4,3.3-9.9c2.2-3.5,5.3-6.8,9.2-9.9c3.9-3.1,8.4-5.6,13.5-7.5
		c5.1-1.9,10.3-2.8,15.7-2.8c4.9,0,9,1.6,12.2,4.9c3.4-2.2,6.4-3.8,9.1-4.8l0.2,0.5c-2.8,1-5.7,2.7-8.8,5c0.9,1.3,1.6,2.5,1.9,3.5
		c0.3,1,0.5,2.4,0.5,4.3c0,1.9-0.6,4-1.7,6.5s-2.7,4.5-4.6,6.2c-2,1.7-4.2,2.6-6.5,2.6c-1,0-1.8-0.3-2.4-1c-0.6-0.7-1-1.5-1-2.4
		c0-2,1-4,2.9-5.8c1.9-1.9,4.5-3.3,7.6-4.2l0.3,0.5c-3.2,1.1-5.7,2.5-7.5,4.1s-2.6,3.5-2.6,5.4c0,0.8,0.2,1.4,0.7,1.9
		c0.5,0.5,1.1,0.8,1.9,0.8c1.1,0,2.3-0.5,3.6-1.5c1.3-1,2.6-2.3,3.9-4.1c1.3-1.7,2.3-3.5,3.1-5.5c0.7-1.9,1.1-3.8,1.1-5.6
		c0-1.7-0.6-3.4-1.7-5.1c-2.8,2.1-5.4,4.2-7.7,6.6c-2.3,2.3-4.2,4.6-5.7,6.8c-1.6,2.2-3.1,4.8-4.7,7.8c-3,5.8-5.6,10.3-7.8,13.6
		c-2.2,3.3-4.5,6-6.9,8.1c-2.9,2.7-6.1,5-9.5,6.9c-3.4,1.9-7,3.4-10.6,4.4c-3.6,1-7.2,1.5-10.8,1.5c-3.6,0-6.3-0.6-8.1-1.8
		c-1.8-1.2-2.7-2.9-2.7-4.9c0-1.1,0.4-2,1.2-2.9c0.8-0.8,1.7-1.3,2.8-1.3c1.6,0,2.4,0.8,2.4,2.3c0,1.4-0.8,2.1-2.4,2.1
		c-0.6,0-1.1-0.1-1.3-0.4c-0.3-0.3-0.6-0.8-1-1.6v-0.1c-0.5,0.3-0.8,1.1-0.8,2.4c0,1.3,0.9,2.6,2.7,3.7c1.8,1.1,4.3,1.7,7.4,1.7
		c5.3,0,10.2-1.2,14.8-3.7c4.6-2.5,8.8-5.9,12.7-10.2c3.9-4.3,7.8-9.5,11.7-15.4c2.5-3.8,4.7-7.1,6.7-9.7c2-2.7,4-5,5.8-6.9
		c1.9-1.9,3.7-3.7,5.5-5.2c1.8-1.5,3.8-3,5.8-4.5c-2.6-3.2-6.4-4.8-11.3-4.8c-5.7,0-11.1,1-16.1,3c-5,2-9.4,4.5-13.1,7.6
		c-3.7,3-6.6,6.3-8.7,9.7c-2.1,3.4-3.2,6.4-3.2,8.8c0,1.8,0.5,3.3,1.6,4.4c1.1,1.1,2.5,1.7,4.2,1.7c3.4,0,7.1-1.2,11-3.7
		c4-2.5,7.6-5.8,10.8-10C68.8,56.1,71.1,51.6,72.4,46.8z"/>
</g>
</svg>
